<svg width="133" height="111" viewBox="0 0 133 111" fill="none" xmlns="http://www.w3.org/2000/svg">
<path d="M82.0167 17.76C89.362 17.76 95.3167 23.7236 95.3167 31.08C95.3167 38.4364 89.362 44.4 82.0167 44.4C74.6713 44.4 68.7167 38.4364 68.7167 31.08C68.7167 23.7236 74.6713 17.76 82.0167 17.76Z" fill="#B3B3B3"/>
<path fill-rule="evenodd" clip-rule="evenodd" d="M104.183 0C110.304 0 115.267 4.96964 115.267 11.1V17.76H121.917C127.754 17.76 132.538 22.2783 132.97 28.0145L132.998 28.5738V28.6085L133 28.8383V99.9C133 106.03 128.038 111 121.917 111H28.795L28.5656 110.998C28.554 110.998 28.5425 110.998 28.5309 110.998C22.541 110.845 17.7333 105.934 17.7333 99.9V93.24H11.0617L10.8322 93.2378C10.8207 93.2377 10.8091 93.2381 10.7976 93.2378C4.80762 93.0855 0 88.1744 0 82.14V11.1C1.18911e-06 4.96964 4.96218 0 11.0833 0H104.183ZM115.267 82.14C115.267 88.2704 110.304 93.24 104.183 93.24H26.6V99.9C26.6 101.126 27.5924 102.12 28.8167 102.12H121.917C123.141 102.12 124.133 101.126 124.133 99.9V28.86C124.133 27.6339 123.141 26.64 121.917 26.64H115.267V82.14ZM11.0833 8.88C9.8591 8.88 8.86667 9.87393 8.86667 11.1V74.68L37.9258 33.8723C40.8118 29.8199 46.8575 29.9189 49.6087 34.0653L71.2212 66.6412L79.3043 54.4594C82.0236 50.3627 87.9784 50.2078 90.9071 54.158L106.4 75.0616V11.1C106.4 9.87393 105.408 8.88 104.183 8.88H11.0833Z" fill="#B3B3B3"/>
</svg>
